<svg xmlns="http://www.w3.org/2000/svg" viewBox="0 0 280 220">
  <!-- Blue ribbon — bird body / left wing -->
  <path d="
    M 148 108
    C 135 95, 110 72, 80 52
    C 58 37, 32 28, 14 36
    C  2 42, -2 56,  6 70
    C 14 84, 34 92, 58 96
    C 84 101, 112 100, 130 107
    C 138 110, 143 114, 146 118
    C 147 113, 148 110, 148 108 Z
  " fill="#1565C0"/>

  <!-- Red ribbon — upper right wing / flame -->
  <path d="
    M 148 108
    C 158 90, 178 62, 208 38
    C 226 24, 248 16, 260 26
    C 272 36, 268 56, 250 70
    C 228 86, 196 96, 168 104
    C 159 107, 153 108, 148 108 Z
  " fill="#D32F2F"/>

  <!-- Yellow ribbon — lower right tail -->
  <path d="
    M 146 118
    C 160 120, 190 128, 224 144
    C 248 156, 268 170, 272 184
    C 276 196, 264 208, 248 206
    C 230 204, 208 188, 186 170
    C 164 152, 150 134, 146 122
    C 146 120, 146 119, 146 118 Z
  " fill="#F9A825"/>
</svg>
